<svg width="282" height="304" viewBox="0 0 282 304" fill="none" xmlns="http://www.w3.org/2000/svg">
<g style="mix-blend-mode:overlay">
<mask id="path-1-inside-1_0_1" fill="white">
<path fill-rule="evenodd" clip-rule="evenodd" d="M27.0043 25V41H32.0043V25H61.0043V41H66.0043V25H95.0043V41H100.004V25H134.004V41H139.004V25H170.004V41H175.004V25H208.004V41H213.004V25H226.004V75.0217L6.00435 75.9782V25H27.0043ZM175.004 20H208.004V0H213.004V20H226.004H231.004V25V80V250V255H226.004H6.00435H1.00435V250V81L0.98261 76L1.00435 76V25V20H6.00435H27.0043V0H32.0043V20H61.0043V0H66.0043V20H95.0043V0H100.004V20H134.004V0H139.004V20H170.004V0H175.004V20ZM226.004 250V80.0217L6.00435 80.9783V250H226.004ZM18.0043 125V96H46.0043V125H18.0043ZM15.0043 93H18.0043H46.0043H49.0043V96V125V128H46.0043H18.0043H15.0043V125V96V93ZM46.0043 148H18.0043V177H46.0043V148ZM18.0043 145H15.0043V148V177V180H18.0043H46.0043H49.0043V177V148V145H46.0043H18.0043ZM69.0043 148H97.0043V177H69.0043V148ZM66.0043 145H69.0043H97.0043H100.004V148V177V180H97.0043H69.0043H66.0043V177V148V145ZM148.004 148H120.004V177H148.004V148ZM120.004 145H117.004V148V177V180H120.004H148.004H151.004V177V148V145H148.004H120.004ZM177.004 148H205.004V177H177.004V148ZM174.004 145H177.004H205.004H208.004V148V177V180H205.004H177.004H174.004V177V148V145ZM18.0043 200V229H46.0043V200H18.0043ZM18.0043 197H15.0043V200V229V232H18.0043H46.0043H49.0043V229V200V197H46.0043H18.0043ZM69.0043 200H97.0043V229H69.0043V200ZM66.0043 197H69.0043H97.0043H100.004V200V229V232H97.0043H69.0043H66.0043V229V200V197ZM120.004 200V229H148.004V200H120.004ZM120.004 197H117.004V200V229V232H120.004H148.004H151.004V229V200V197H148.004H120.004ZM69.0043 96H97.0043V125H69.0043V96ZM66.0043 93H69.0043H97.0043H100.004V96V125V128H97.0043H69.0043H66.0043V125V96V93ZM120.004 96V125H148.004V96H120.004ZM120.004 93H117.004V96V125V128H120.004H148.004H151.004V125V96V93H148.004H120.004ZM177.004 96H205.004V125H177.004V96ZM174.004 93H177.004H205.004H208.004V96V125V128H205.004H177.004H174.004V125V96V93Z"/>
</mask>
<path fill-rule="evenodd" clip-rule="evenodd" d="M27.0043 25V41H32.0043V25H61.0043V41H66.0043V25H95.0043V41H100.004V25H134.004V41H139.004V25H170.004V41H175.004V25H208.004V41H213.004V25H226.004V75.0217L6.00435 75.9782V25H27.0043ZM175.004 20H208.004V0H213.004V20H226.004H231.004V25V80V250V255H226.004H6.00435H1.00435V250V81L0.98261 76L1.00435 76V25V20H6.00435H27.0043V0H32.0043V20H61.0043V0H66.0043V20H95.0043V0H100.004V20H134.004V0H139.004V20H170.004V0H175.004V20ZM226.004 250V80.0217L6.00435 80.9783V250H226.004ZM18.0043 125V96H46.0043V125H18.0043ZM15.0043 93H18.0043H46.0043H49.0043V96V125V128H46.0043H18.0043H15.0043V125V96V93ZM46.0043 148H18.0043V177H46.0043V148ZM18.0043 145H15.0043V148V177V180H18.0043H46.0043H49.0043V177V148V145H46.0043H18.0043ZM69.0043 148H97.0043V177H69.0043V148ZM66.0043 145H69.0043H97.0043H100.004V148V177V180H97.0043H69.0043H66.0043V177V148V145ZM148.004 148H120.004V177H148.004V148ZM120.004 145H117.004V148V177V180H120.004H148.004H151.004V177V148V145H148.004H120.004ZM177.004 148H205.004V177H177.004V148ZM174.004 145H177.004H205.004H208.004V148V177V180H205.004H177.004H174.004V177V148V145ZM18.0043 200V229H46.0043V200H18.0043ZM18.0043 197H15.0043V200V229V232H18.0043H46.0043H49.0043V229V200V197H46.0043H18.0043ZM69.0043 200H97.0043V229H69.0043V200ZM66.0043 197H69.0043H97.0043H100.004V200V229V232H97.0043H69.0043H66.0043V229V200V197ZM120.004 200V229H148.004V200H120.004ZM120.004 197H117.004V200V229V232H120.004H148.004H151.004V229V200V197H148.004H120.004ZM69.0043 96H97.0043V125H69.0043V96ZM66.0043 93H69.0043H97.0043H100.004V96V125V128H97.0043H69.0043H66.0043V125V96V93ZM120.004 96V125H148.004V96H120.004ZM120.004 93H117.004V96V125V128H120.004H148.004H151.004V125V96V93H148.004H120.004ZM177.004 96H205.004V125H177.004V96ZM174.004 93H177.004H205.004H208.004V96V125V128H205.004H177.004H174.004V125V96V93Z" fill="black"/>
<path d="M27.0043 41H5.00435V63H27.0043V41ZM27.0043 25H49.0043V3H27.0043V25ZM32.0043 41V63H54.0043V41H32.0043ZM32.0043 25V3H10.0043V25H32.0043ZM61.0043 25H83.0043V3H61.0043V25ZM61.0043 41H39.0043V63H61.0043V41ZM66.0043 41V63H88.0043V41H66.0043ZM66.0043 25V3H44.0043V25H66.0043ZM95.0043 25H117.004V3H95.0043V25ZM95.0043 41H73.0043V63H95.0043V41ZM100.004 41V63H122.004V41H100.004ZM100.004 25V3H78.0043V25H100.004ZM134.004 25H156.004V3H134.004V25ZM134.004 41H112.004V63H134.004V41ZM139.004 41V63H161.004V41H139.004ZM139.004 25V3H117.004V25H139.004ZM170.004 25H192.004V3H170.004V25ZM170.004 41H148.004V63H170.004V41ZM175.004 41V63H197.004V41H175.004ZM175.004 25V3H153.004V25H175.004ZM208.004 25H230.004V3H208.004V25ZM208.004 41H186.004V63H208.004V41ZM213.004 41V63H235.004V41H213.004ZM213.004 25V3H191.004V25H213.004ZM226.004 25H248.004V3H226.004V25ZM226.004 75.0217L226.1 97.0215L248.004 96.9262V75.0217H226.004ZM6.00435 75.9782H-15.9957V98.0741L6.1 97.978L6.00435 75.9782ZM6.00435 25V3H-15.9957V25H6.00435ZM208.004 20V42H230.004V20H208.004ZM175.004 20H153.004V42H175.004V20ZM208.004 0V-22H186.004V0H208.004ZM213.004 0H235.004V-22H213.004V0ZM213.004 20H191.004V42H213.004V20ZM231.004 20H253.004V-2H231.004V20ZM231.004 255V277H253.004V255H231.004ZM1.00435 255H-20.9957V277H1.00435V255ZM1.00435 81H23.0043V80.9522L23.0041 80.9043L1.00435 81ZM0.98261 76L0.889958 54.0002L-21.1128 54.0929L-21.0172 76.0957L0.98261 76ZM1.00435 76L1.097 97.9998L23.0043 97.9075V76H1.00435ZM1.00435 20V-2H-20.9957V20H1.00435ZM27.0043 20V42H49.0043V20H27.0043ZM27.0043 0V-22H5.00435V0H27.0043ZM32.0043 0H54.0043V-22H32.0043V0ZM32.0043 20H10.0043V42H32.0043V20ZM61.0043 20V42H83.0043V20H61.0043ZM61.0043 0V-22H39.0043V0H61.0043ZM66.0043 0H88.0043V-22H66.0043V0ZM66.0043 20H44.0043V42H66.0043V20ZM95.0043 20V42H117.004V20H95.0043ZM95.0043 0V-22H73.0043V0H95.0043ZM100.004 0H122.004V-22H100.004V0ZM100.004 20H78.0043V42H100.004V20ZM134.004 20V42H156.004V20H134.004ZM134.004 0V-22H112.004V0H134.004ZM139.004 0H161.004V-22H139.004V0ZM139.004 20H117.004V42H139.004V20ZM170.004 20V42H192.004V20H170.004ZM170.004 0V-22H148.004V0H170.004ZM175.004 0H197.004V-22H175.004V0ZM226.004 80.0217H248.004V57.9259L225.909 58.0219L226.004 80.0217ZM226.004 250V272H248.004V250H226.004ZM6.00435 80.9783L5.9087 58.9785L-15.9957 59.0737L-15.9957 80.9783H6.00435ZM6.00435 250H-15.9957V272H6.00435V250ZM18.0043 96V74H-3.99565V96H18.0043ZM18.0043 125H-3.99565V147H18.0043V125ZM46.0043 96H68.0043V74H46.0043V96ZM46.0043 125V147H68.0043V125H46.0043ZM15.0043 93V71H-6.99565V93H15.0043ZM49.0043 93H71.0043V71H49.0043V93ZM49.0043 128V150H71.0043V128H49.0043ZM15.0043 128H-6.99565V150H15.0043V128ZM18.0043 148V126H-3.99565V148H18.0043ZM46.0043 148H68.0043V126H46.0043V148ZM18.0043 177H-3.99565V199H18.0043V177ZM46.0043 177V199H68.0043V177H46.0043ZM15.0043 145V123H-6.99565V145H15.0043ZM15.0043 180H-6.99565V202H15.0043V180ZM49.0043 180V202H71.0043V180H49.0043ZM49.0043 145H71.0043V123H49.0043V145ZM97.0043 148H119.004V126H97.0043V148ZM69.0043 148V126H47.0043V148H69.0043ZM97.0043 177V199H119.004V177H97.0043ZM69.0043 177H47.0043V199H69.0043V177ZM66.0043 145V123H44.0043V145H66.0043ZM100.004 145H122.004V123H100.004V145ZM100.004 180V202H122.004V180H100.004ZM66.0043 180H44.0043V202H66.0043V180ZM120.004 148V126H98.0043V148H120.004ZM148.004 148H170.004V126H148.004V148ZM120.004 177H98.0043V199H120.004V177ZM148.004 177V199H170.004V177H148.004ZM117.004 145V123H95.0043V145H117.004ZM117.004 180H95.0043V202H117.004V180ZM151.004 180V202H173.004V180H151.004ZM151.004 145H173.004V123H151.004V145ZM205.004 148H227.004V126H205.004V148ZM177.004 148V126H155.004V148H177.004ZM205.004 177V199H227.004V177H205.004ZM177.004 177H155.004V199H177.004V177ZM174.004 145V123H152.004V145H174.004ZM208.004 145H230.004V123H208.004V145ZM208.004 180V202H230.004V180H208.004ZM174.004 180H152.004V202H174.004V180ZM18.0043 229H-3.99565V251H18.0043V229ZM18.0043 200V178H-3.99565V200H18.0043ZM46.0043 229V251H68.0043V229H46.0043ZM46.0043 200H68.0043V178H46.0043V200ZM15.0043 197V175H-6.99565V197H15.0043ZM15.0043 232H-6.99565V254H15.0043V232ZM49.0043 232V254H71.0043V232H49.0043ZM49.0043 197H71.0043V175H49.0043V197ZM97.0043 200H119.004V178H97.0043V200ZM69.0043 200V178H47.0043V200H69.0043ZM97.0043 229V251H119.004V229H97.0043ZM69.0043 229H47.0043V251H69.0043V229ZM66.0043 197V175H44.0043V197H66.0043ZM100.004 197H122.004V175H100.004V197ZM100.004 232V254H122.004V232H100.004ZM66.0043 232H44.0043V254H66.0043V232ZM120.004 229H98.0043V251H120.004V229ZM120.004 200V178H98.0043V200H120.004ZM148.004 229V251H170.004V229H148.004ZM148.004 200H170.004V178H148.004V200ZM117.004 197V175H95.0043V197H117.004ZM117.004 232H95.0043V254H117.004V232ZM151.004 232V254H173.004V232H151.004ZM151.004 197H173.004V175H151.004V197ZM97.0043 96H119.004V74H97.0043V96ZM69.0043 96V74H47.0043V96H69.0043ZM97.0043 125V147H119.004V125H97.0043ZM69.0043 125H47.0043V147H69.0043V125ZM66.0043 93V71H44.0043V93H66.0043ZM100.004 93H122.004V71H100.004V93ZM100.004 128V150H122.004V128H100.004ZM66.0043 128H44.0043V150H66.0043V128ZM120.004 125H98.0043V147H120.004V125ZM120.004 96V74H98.0043V96H120.004ZM148.004 125V147H170.004V125H148.004ZM148.004 96H170.004V74H148.004V96ZM117.004 93V71H95.0043V93H117.004ZM117.004 128H95.0043V150H117.004V128ZM151.004 128V150H173.004V128H151.004ZM151.004 93H173.004V71H151.004V93ZM205.004 96H227.004V74H205.004V96ZM177.004 96V74H155.004V96H177.004ZM205.004 125V147H227.004V125H205.004ZM177.004 125H155.004V147H177.004V125ZM174.004 93V71H152.004V93H174.004ZM208.004 93H230.004V71H208.004V93ZM208.004 128V150H230.004V128H208.004ZM174.004 128H152.004V150H174.004V128ZM49.0043 41V25H5.00435V41H49.0043ZM32.0043 19H27.0043V63H32.0043V19ZM10.0043 25V41H54.0043V25H10.0043ZM61.0043 3H32.0043V47H61.0043V3ZM83.0043 41V25H39.0043V41H83.0043ZM66.0043 19H61.0043V63H66.0043V19ZM44.0043 25V41H88.0043V25H44.0043ZM95.0043 3H66.0043V47H95.0043V3ZM117.004 41V25H73.0043V41H117.004ZM100.004 19H95.0043V63H100.004V19ZM78.0043 25V41H122.004V25H78.0043ZM134.004 3H100.004V47H134.004V3ZM156.004 41V25H112.004V41H156.004ZM139.004 19H134.004V63H139.004V19ZM117.004 25V41H161.004V25H117.004ZM170.004 3H139.004V47H170.004V3ZM192.004 41V25H148.004V41H192.004ZM175.004 19H170.004V63H175.004V19ZM153.004 25V41H197.004V25H153.004ZM208.004 3H175.004V47H208.004V3ZM230.004 41V25H186.004V41H230.004ZM213.004 19H208.004V63H213.004V19ZM191.004 25V41H235.004V25H191.004ZM226.004 3H213.004V47H226.004V3ZM248.004 75.0217V25H204.004V75.0217H248.004ZM6.1 97.978L226.1 97.0215L225.909 53.0219L5.9087 53.9784L6.1 97.978ZM-15.9957 25V75.9782H28.0043V25H-15.9957ZM27.0043 3H6.00435V47H27.0043V3ZM208.004 -2H175.004V42H208.004V-2ZM186.004 0V20H230.004V0H186.004ZM213.004 -22H208.004V22H213.004V-22ZM235.004 20V0H191.004V20H235.004ZM226.004 -2H213.004V42H226.004V-2ZM231.004 -2H226.004V42H231.004V-2ZM253.004 25V20H209.004V25H253.004ZM253.004 80V25H209.004V80H253.004ZM253.004 250V80H209.004V250H253.004ZM253.004 255V250H209.004V255H253.004ZM226.004 277H231.004V233H226.004V277ZM6.00435 277H226.004V233H6.00435V277ZM1.00435 277H6.00435V233H1.00435V277ZM-20.9957 250V255H23.0043V250H-20.9957ZM-20.9957 81V250H23.0043V81H-20.9957ZM-21.0172 76.0957L-20.9954 81.0957L23.0041 80.9043L22.9824 75.9044L-21.0172 76.0957ZM0.911697 54.0001L0.889958 54.0002L1.07526 97.9999L1.097 97.9998L0.911697 54.0001ZM-20.9957 25V76H23.0043V25H-20.9957ZM-20.9957 20V25H23.0043V20H-20.9957ZM6.00435 -2H1.00435V42H6.00435V-2ZM27.0043 -2H6.00435V42H27.0043V-2ZM5.00435 0V20H49.0043V0H5.00435ZM32.0043 -22H27.0043V22H32.0043V-22ZM54.0043 20V0H10.0043V20H54.0043ZM61.0043 -2H32.0043V42H61.0043V-2ZM39.0043 0V20H83.0043V0H39.0043ZM66.0043 -22H61.0043V22H66.0043V-22ZM88.0043 20V0H44.0043V20H88.0043ZM95.0043 -2H66.0043V42H95.0043V-2ZM73.0043 0V20H117.004V0H73.0043ZM100.004 -22H95.0043V22H100.004V-22ZM122.004 20V0H78.0043V20H122.004ZM134.004 -2H100.004V42H134.004V-2ZM112.004 0V20H156.004V0H112.004ZM139.004 -22H134.004V22H139.004V-22ZM161.004 20V0H117.004V20H161.004ZM170.004 -2H139.004V42H170.004V-2ZM148.004 0V20H192.004V0H148.004ZM175.004 -22H170.004V22H175.004V-22ZM197.004 20V0H153.004V20H197.004ZM204.004 80.0217V250H248.004V80.0217H204.004ZM6.1 102.978L226.1 102.022L225.909 58.0219L5.9087 58.9785L6.1 102.978ZM28.0043 250V80.9783H-15.9957V250H28.0043ZM226.004 228H6.00435V272H226.004V228ZM-3.99565 96V125H40.0043V96H-3.99565ZM46.0043 74H18.0043V118H46.0043V74ZM68.0043 125V96H24.0043V125H68.0043ZM18.0043 147H46.0043V103H18.0043V147ZM18.0043 71H15.0043V115H18.0043V71ZM46.0043 71H18.0043V115H46.0043V71ZM49.0043 71H46.0043V115H49.0043V71ZM71.0043 96V93H27.0043V96H71.0043ZM71.0043 125V96H27.0043V125H71.0043ZM71.0043 128V125H27.0043V128H71.0043ZM46.0043 150H49.0043V106H46.0043V150ZM18.0043 150H46.0043V106H18.0043V150ZM15.0043 150H18.0043V106H15.0043V150ZM-6.99565 125V128H37.0043V125H-6.99565ZM-6.99565 96V125H37.0043V96H-6.99565ZM-6.99565 93V96H37.0043V93H-6.99565ZM18.0043 170H46.0043V126H18.0043V170ZM40.0043 177V148H-3.99565V177H40.0043ZM46.0043 155H18.0043V199H46.0043V155ZM24.0043 148V177H68.0043V148H24.0043ZM15.0043 167H18.0043V123H15.0043V167ZM37.0043 148V145H-6.99565V148H37.0043ZM37.0043 177V148H-6.99565V177H37.0043ZM37.0043 180V177H-6.99565V180H37.0043ZM18.0043 158H15.0043V202H18.0043V158ZM46.0043 158H18.0043V202H46.0043V158ZM49.0043 158H46.0043V202H49.0043V158ZM27.0043 177V180H71.0043V177H27.0043ZM27.0043 148V177H71.0043V148H27.0043ZM27.0043 145V148H71.0043V145H27.0043ZM46.0043 167H49.0043V123H46.0043V167ZM18.0043 167H46.0043V123H18.0043V167ZM97.0043 126H69.0043V170H97.0043V126ZM119.004 177V148H75.0043V177H119.004ZM69.0043 199H97.0043V155H69.0043V199ZM47.0043 148V177H91.0043V148H47.0043ZM69.0043 123H66.0043V167H69.0043V123ZM97.0043 123H69.0043V167H97.0043V123ZM100.004 123H97.0043V167H100.004V123ZM122.004 148V145H78.0043V148H122.004ZM122.004 177V148H78.0043V177H122.004ZM122.004 180V177H78.0043V180H122.004ZM97.0043 202H100.004V158H97.0043V202ZM69.0043 202H97.0043V158H69.0043V202ZM66.0043 202H69.0043V158H66.0043V202ZM44.0043 177V180H88.0043V177H44.0043ZM44.0043 148V177H88.0043V148H44.0043ZM44.0043 145V148H88.0043V145H44.0043ZM120.004 170H148.004V126H120.004V170ZM142.004 177V148H98.0043V177H142.004ZM148.004 155H120.004V199H148.004V155ZM126.004 148V177H170.004V148H126.004ZM117.004 167H120.004V123H117.004V167ZM139.004 148V145H95.0043V148H139.004ZM139.004 177V148H95.0043V177H139.004ZM139.004 180V177H95.0043V180H139.004ZM120.004 158H117.004V202H120.004V158ZM148.004 158H120.004V202H148.004V158ZM151.004 158H148.004V202H151.004V158ZM129.004 177V180H173.004V177H129.004ZM129.004 148V177H173.004V148H129.004ZM129.004 145V148H173.004V145H129.004ZM148.004 167H151.004V123H148.004V167ZM120.004 167H148.004V123H120.004V167ZM205.004 126H177.004V170H205.004V126ZM227.004 177V148H183.004V177H227.004ZM177.004 199H205.004V155H177.004V199ZM155.004 148V177H199.004V148H155.004ZM177.004 123H174.004V167H177.004V123ZM205.004 123H177.004V167H205.004V123ZM208.004 123H205.004V167H208.004V123ZM230.004 148V145H186.004V148H230.004ZM230.004 177V148H186.004V177H230.004ZM230.004 180V177H186.004V180H230.004ZM205.004 202H208.004V158H205.004V202ZM177.004 202H205.004V158H177.004V202ZM174.004 202H177.004V158H174.004V202ZM152.004 177V180H196.004V177H152.004ZM152.004 148V177H196.004V148H152.004ZM152.004 145V148H196.004V145H152.004ZM40.0043 229V200H-3.99565V229H40.0043ZM46.0043 207H18.0043V251H46.0043V207ZM24.0043 200V229H68.0043V200H24.0043ZM18.0043 222H46.0043V178H18.0043V222ZM15.0043 219H18.0043V175H15.0043V219ZM37.0043 200V197H-6.99565V200H37.0043ZM37.0043 229V200H-6.99565V229H37.0043ZM37.0043 232V229H-6.99565V232H37.0043ZM18.0043 210H15.0043V254H18.0043V210ZM46.0043 210H18.0043V254H46.0043V210ZM49.0043 210H46.0043V254H49.0043V210ZM27.0043 229V232H71.0043V229H27.0043ZM27.0043 200V229H71.0043V200H27.0043ZM27.0043 197V200H71.0043V197H27.0043ZM46.0043 219H49.0043V175H46.0043V219ZM18.0043 219H46.0043V175H18.0043V219ZM97.0043 178H69.0043V222H97.0043V178ZM119.004 229V200H75.0043V229H119.004ZM69.0043 251H97.0043V207H69.0043V251ZM47.0043 200V229H91.0043V200H47.0043ZM69.0043 175H66.0043V219H69.0043V175ZM97.0043 175H69.0043V219H97.0043V175ZM100.004 175H97.0043V219H100.004V175ZM122.004 200V197H78.0043V200H122.004ZM122.004 229V200H78.0043V229H122.004ZM122.004 232V229H78.0043V232H122.004ZM97.0043 254H100.004V210H97.0043V254ZM69.0043 254H97.0043V210H69.0043V254ZM66.0043 254H69.0043V210H66.0043V254ZM44.0043 229V232H88.0043V229H44.0043ZM44.0043 200V229H88.0043V200H44.0043ZM44.0043 197V200H88.0043V197H44.0043ZM142.004 229V200H98.0043V229H142.004ZM148.004 207H120.004V251H148.004V207ZM126.004 200V229H170.004V200H126.004ZM120.004 222H148.004V178H120.004V222ZM117.004 219H120.004V175H117.004V219ZM139.004 200V197H95.0043V200H139.004ZM139.004 229V200H95.0043V229H139.004ZM139.004 232V229H95.0043V232H139.004ZM120.004 210H117.004V254H120.004V210ZM148.004 210H120.004V254H148.004V210ZM151.004 210H148.004V254H151.004V210ZM129.004 229V232H173.004V229H129.004ZM129.004 200V229H173.004V200H129.004ZM129.004 197V200H173.004V197H129.004ZM148.004 219H151.004V175H148.004V219ZM120.004 219H148.004V175H120.004V219ZM97.0043 74H69.0043V118H97.0043V74ZM119.004 125V96H75.0043V125H119.004ZM69.0043 147H97.0043V103H69.0043V147ZM47.0043 96V125H91.0043V96H47.0043ZM69.0043 71H66.0043V115H69.0043V71ZM97.0043 71H69.0043V115H97.0043V71ZM100.004 71H97.0043V115H100.004V71ZM122.004 96V93H78.0043V96H122.004ZM122.004 125V96H78.0043V125H122.004ZM122.004 128V125H78.0043V128H122.004ZM97.0043 150H100.004V106H97.0043V150ZM69.0043 150H97.0043V106H69.0043V150ZM66.0043 150H69.0043V106H66.0043V150ZM44.0043 125V128H88.0043V125H44.0043ZM44.0043 96V125H88.0043V96H44.0043ZM44.0043 93V96H88.0043V93H44.0043ZM142.004 125V96H98.0043V125H142.004ZM148.004 103H120.004V147H148.004V103ZM126.004 96V125H170.004V96H126.004ZM120.004 118H148.004V74H120.004V118ZM117.004 115H120.004V71H117.004V115ZM139.004 96V93H95.0043V96H139.004ZM139.004 125V96H95.0043V125H139.004ZM139.004 128V125H95.0043V128H139.004ZM120.004 106H117.004V150H120.004V106ZM148.004 106H120.004V150H148.004V106ZM151.004 106H148.004V150H151.004V106ZM129.004 125V128H173.004V125H129.004ZM129.004 96V125H173.004V96H129.004ZM129.004 93V96H173.004V93H129.004ZM148.004 115H151.004V71H148.004V115ZM120.004 115H148.004V71H120.004V115ZM205.004 74H177.004V118H205.004V74ZM227.004 125V96H183.004V125H227.004ZM177.004 147H205.004V103H177.004V147ZM155.004 96V125H199.004V96H155.004ZM177.004 71H174.004V115H177.004V71ZM205.004 71H177.004V115H205.004V71ZM208.004 71H205.004V115H208.004V71ZM230.004 96V93H186.004V96H230.004ZM230.004 125V96H186.004V125H230.004ZM230.004 128V125H186.004V128H230.004ZM205.004 150H208.004V106H205.004V150ZM177.004 150H205.004V106H177.004V150ZM174.004 150H177.004V106H174.004V150ZM152.004 125V128H196.004V125H152.004ZM152.004 96V125H196.004V96H152.004ZM152.004 93V96H196.004V93H152.004Z" fill="black" mask="url(#path-1-inside-1_0_1)"/>
</g>
<path d="M280 255C280 280.425 259.609 301 234.5 301C209.391 301 189 280.425 189 255C189 229.575 209.391 209 234.5 209C259.609 209 280 229.575 280 255Z" fill="#FDBE33" stroke="black" stroke-width="4"/>
<circle cx="234" cy="256.017" r="2" fill="#D9D9D9" stroke="black" stroke-width="2"/>
<line x1="250.219" y1="216.392" x2="254.219" y2="211.392" stroke="black" stroke-width="2"/>
<line x1="268.293" y1="233.31" x2="273.293" y2="228.31" stroke="black" stroke-width="2"/>
<line x1="276" y1="255.017" x2="282" y2="255.017" stroke="black" stroke-width="2"/>
<line x1="269.447" y1="276.123" x2="275.447" y2="279.123" stroke="black" stroke-width="2"/>
<line x1="269.447" y1="276.123" x2="275.447" y2="279.123" stroke="black" stroke-width="2"/>
<line x1="255.555" y1="290.185" x2="261.555" y2="294.185" stroke="black" stroke-width="2"/>
<line x1="235" y1="296.017" x2="235" y2="303.017" stroke="black" stroke-width="2"/>
<line x1="214.868" y1="289.513" x2="210.868" y2="296.513" stroke="black" stroke-width="2"/>
<line x1="202.709" y1="277.722" x2="196.709" y2="283.76" stroke="black" stroke-width="2"/>
<line x1="198.004" y1="257.017" x2="188.004" y2="257.056" stroke="black" stroke-width="2"/>
<line x1="203.632" y1="235.908" x2="193.632" y2="231.947" stroke="black" stroke-width="2"/>
<line x1="217.687" y1="218.928" x2="208.687" y2="215.967" stroke="black" stroke-width="2"/>
<line x1="233" y1="216.998" x2="233.17" y2="207" stroke="black" stroke-width="2"/>
<path d="M234 236.017V253.017" stroke="black" stroke-width="2"/>
<path d="M251 256.017H237" stroke="black" stroke-width="2"/>
</svg>
