<?xml version="1.0" standalone="no"?>
<!DOCTYPE svg PUBLIC "-//W3C//DTD SVG 20010904//EN"
 "http://www.w3.org/TR/2001/REC-SVG-20010904/DTD/svg10.dtd">
<svg version="1.0" xmlns="http://www.w3.org/2000/svg"
 width="512.000000pt" height="512.000000pt" viewBox="0 0 512.000000 512.000000"
 preserveAspectRatio="xMidYMid meet">

<g transform="translate(0.000000,512.000000) scale(0.100000,-0.100000)"
fill="#000000" stroke="none">
<path d="M320 4947 c-49 -16 -133 -102 -148 -153 -18 -60 -18 -3768 0 -3828
16 -55 99 -138 154 -154 29 -8 146 -12 393 -12 l352 0 24 25 c33 32 33 78 0
110 l-24 25 -351 0 -351 0 -24 25 -25 24 0 1496 0 1495 2240 0 2240 0 0 -1495
0 -1496 -25 -24 -24 -25 -231 0 -231 0 -24 -25 c-33 -32 -33 -78 0 -110 l24
-25 232 0 c153 0 246 4 273 12 55 16 138 99 154 154 17 59 18 3768 0 3826 -6
22 -31 62 -55 88 -79 88 145 80 -2337 79 -1574 -1 -2211 -4 -2236 -12z m4455
-172 l25 -24 0 -296 0 -295 -2240 0 -2240 0 0 295 0 296 25 24 24 25 2191 0
2191 0 24 -25z"/>
<path d="M2080 4707 c-49 -16 -133 -102 -148 -153 -28 -94 -8 -169 63 -239 31
-32 65 -55 91 -63 31 -9 319 -12 1196 -12 1307 0 1214 -6 1291 80 90 100 90
220 0 320 -77 86 17 80 -1297 79 -816 -1 -1171 -4 -1196 -12z m2375 -172 c16
-15 25 -36 25 -55 0 -19 -9 -40 -25 -55 l-24 -25 -1151 0 -1151 0 -24 25 c-16
15 -25 36 -25 55 0 19 9 40 25 55 l24 25 1151 0 1151 0 24 -25z"/>
<path d="M575 4626 c-101 -44 -125 -178 -46 -257 112 -113 296 -12 267 146
-18 94 -131 151 -221 111z"/>
<path d="M1055 4626 c-101 -44 -125 -178 -46 -257 112 -113 296 -12 267 146
-18 94 -131 151 -221 111z"/>
<path d="M1535 4626 c-101 -44 -125 -178 -46 -257 112 -113 296 -12 267 146
-18 94 -131 151 -221 111z"/>
<path d="M505 3815 l-25 -24 0 -591 0 -591 25 -24 24 -25 831 0 831 0 24 25
25 24 0 591 0 591 -25 24 -24 25 -831 0 -831 0 -24 -25z m1429 -153 c-12 -9
-144 -127 -294 -262 -149 -135 -275 -245 -280 -245 -4 0 -139 118 -299 263
l-292 262 593 0 c564 0 592 -1 572 -18z m-999 -347 c66 -59 120 -111 120 -115
0 -4 -74 -74 -165 -155 -91 -81 -184 -166 -207 -189 l-43 -40 0 383 0 383 88
-79 c48 -44 141 -128 207 -188z m1145 -115 l0 -381 -207 188 c-115 103 -208
190 -208 193 0 5 405 377 413 379 1 1 2 -170 2 -379z m-851 -149 c63 -52 82
-61 134 -61 46 0 92 24 149 77 l27 25 198 -177 c109 -98 202 -182 207 -187 6
-4 -256 -8 -582 -8 l-592 0 202 184 c112 102 205 185 207 185 2 1 24 -16 50
-38z"/>
<path d="M2425 3576 c-33 -33 -33 -79 0 -111 l24 -25 359 0 c211 0 383 -4 418
-11 98 -17 213 -79 288 -155 219 -218 219 -567 1 -787 -76 -77 -190 -138 -289
-156 -39 -7 -324 -11 -818 -11 -834 0 -837 0 -985 -61 -228 -95 -396 -302
-447 -551 -72 -349 119 -710 447 -847 136 -56 187 -61 617 -61 l391 0 24 25
c33 32 33 78 0 110 l-24 25 -383 0 c-298 0 -399 4 -453 15 -269 57 -475 310
-475 585 0 257 176 493 430 576 51 17 119 19 880 24 l825 5 77 26 c120 41 204
93 294 183 90 90 143 175 182 294 22 67 26 94 26 212 0 118 -4 145 -26 212
-39 119 -92 204 -182 294 -90 90 -174 142 -294 182 -77 26 -78 26 -479 30
l-403 3 -25 -25z"/>
<path d="M3326 1795 c-912 -330 -1224 -448 -1238 -465 -25 -30 -23 -72 5 -98
12 -12 142 -64 297 -119 l274 -98 76 -380 c42 -209 79 -392 83 -408 11 -40 42
-67 79 -67 29 0 62 29 308 276 l277 275 218 -65 c227 -69 258 -74 288 -52 21
16 657 1537 657 1572 0 34 -42 74 -77 73 -15 -1 -577 -200 -1247 -444z m1031
58 c-3 -5 -105 -249 -227 -543 -122 -294 -226 -539 -230 -544 -8 -7 -568 153
-608 174 -9 4 168 162 520 463 475 406 561 477 545 450z m-550 -59 c-3 -4
-248 -147 -544 -319 l-537 -313 -96 35 c-52 18 -128 46 -169 60 -41 15 -70 28
-65 30 5 2 324 118 709 258 746 270 711 258 702 249z m-37 -218 c-8 -7 -172
-147 -365 -311 -192 -164 -354 -306 -360 -314 -5 -9 -33 -88 -61 -176 -27 -88
-54 -169 -58 -180 -6 -14 -21 40 -52 190 -24 116 -43 220 -44 231 0 18 56 54
323 209 177 104 390 228 472 276 154 91 170 99 145 75z m-487 -803 c15 -3 27
-9 27 -13 0 -10 -222 -222 -226 -217 -2 2 14 61 36 131 22 70 40 130 40 132 0
1 21 -4 48 -12 26 -8 59 -17 75 -21z"/>
</g>
</svg>
