<?xml version="1.0" standalone="no"?>
<!DOCTYPE svg PUBLIC "-//W3C//DTD SVG 20010904//EN"
 "http://www.w3.org/TR/2001/REC-SVG-20010904/DTD/svg10.dtd">
<svg version="1.0" xmlns="http://www.w3.org/2000/svg"
 width="656.000000pt" height="489.000000pt" viewBox="0 0 656.000000 489.000000"
 preserveAspectRatio="xMidYMid meet">

<g transform="translate(0.000000,489.000000) scale(0.100000,-0.100000)"
fill="#000000" stroke="none">
<path d="M490 4600 c-75 -11 -110 -33 -127 -83 -32 -95 -24 -648 10 -714 28
-54 45 -56 410 -51 373 4 373 4 405 76 20 47 30 471 13 606 -12 102 -24 126
-78 152 -34 16 -68 18 -303 20 -146 2 -294 -1 -330 -6z"/>
<path d="M1912 4497 c-18 -18 -37 -49 -42 -68 -12 -42 -13 -460 -1 -513 5 -21
24 -54 42 -72 l33 -34 2072 0 2072 0 37 46 c33 40 38 54 47 127 11 91 3 392
-12 448 -5 19 -21 46 -36 60 l-26 24 -311 7 c-172 3 -1106 7 -2078 7 l-1765 1
-32 -33z"/>
<path d="M423 2855 c-17 -7 -39 -25 -48 -39 -23 -35 -34 -182 -34 -467 l-1
-227 47 -56 47 -56 342 0 342 0 46 54 46 53 0 299 c-1 164 -5 318 -9 342 -6
28 -20 56 -42 78 l-33 34 -335 0 c-263 -1 -343 -4 -368 -15z"/>
<path d="M2145 2800 c-132 -4 -198 -10 -217 -19 -52 -27 -62 -66 -66 -283 -6
-269 0 -315 44 -367 l36 -41 2081 2 2081 3 32 42 c30 39 33 49 40 150 9 143
-7 408 -28 449 -29 55 -43 57 -413 65 -390 8 -3305 8 -3590 -1z"/>
<path d="M490 1141 c-74 -7 -100 -21 -126 -65 -16 -28 -19 -64 -22 -359 l-5
-329 54 -54 53 -54 336 0 336 0 47 48 47 48 0 279 c0 382 -12 450 -81 474 -35
12 -547 22 -639 12z"/>
<path d="M1935 1051 c-72 -44 -70 -35 -70 -320 0 -141 3 -267 8 -281 4 -14 21
-41 37 -60 l31 -35 2047 0 c1964 0 2049 1 2095 18 33 13 52 28 64 50 22 43 38
287 28 440 -7 112 -9 120 -39 160 l-32 42 -2070 2 c-2000 3 -2070 2 -2099 -16z"/>
</g>
</svg>
